<?xml version="1.0" standalone="no"?>
<!DOCTYPE svg PUBLIC "-//W3C//DTD SVG 20010904//EN"
 "http://www.w3.org/TR/2001/REC-SVG-20010904/DTD/svg10.dtd">
<svg version="1.0" xmlns="http://www.w3.org/2000/svg"
 width="700.000000pt" height="700.000000pt" viewBox="0 0 700.000000 700.000000"
 preserveAspectRatio="xMidYMid meet">
<metadata>
Created by potrace 1.11, written by Peter Selinger 2001-2013
</metadata>
<g transform="translate(0.000000,700.000000) scale(0.100000,-0.100000)"
fill="#000000" stroke="none">
<path d="M3545 6389 c-169 -32 -223 -48 -340 -104 -101 -48 -163 -92 -275
-193 -63 -58 -147 -131 -270 -235 -233 -197 -540 -382 -727 -437 -40 -11 -73
-25 -73 -30 0 -19 75 -81 125 -105 47 -23 93 -36 175 -50 19 -3 36 -8 38 -9 9
-10 -65 -78 -110 -100 l-51 -26 56 -24 c31 -14 96 -33 144 -42 124 -24 119
-21 100 -42 -9 -9 -43 -28 -76 -41 -34 -13 -61 -30 -61 -36 0 -7 21 -24 48
-38 63 -33 107 -92 123 -164 11 -55 8 -236 -6 -308 -28 -149 -41 -210 -75
-340 -22 -82 -62 -222 -89 -309 -28 -88 -50 -160 -48 -162 10 -8 106 -51 169
-74 279 -105 689 -163 1152 -163 118 0 340 10 421 18 22 2 69 7 105 10 36 4
81 9 100 12 19 3 44 6 55 8 22 3 132 22 180 31 101 18 246 58 338 93 l26 10
-45 128 c-105 296 -147 515 -147 753 1 332 108 602 317 802 64 62 168 131 243
164 32 13 67 29 78 34 56 27 193 50 285 47 90 -3 190 -28 190 -47 0 -4 6 -10
13 -13 9 -3 14 6 15 33 2 21 4 46 6 56 7 35 -13 143 -35 188 -56 119 -211 210
-401 233 -65 8 -288 9 -392 2 -50 -3 -60 -1 -69 16 -122 221 -331 366 -627
434 -129 30 -153 32 -325 35 -123 3 -183 -1 -260 -15z m744 -393 c17 -9 35
-25 41 -35 8 -16 5 -23 -19 -40 -89 -64 -343 -30 -315 42 3 9 29 25 57 36 63
23 188 21 236 -3z"/>
<path d="M0 4585 l0 -235 73 -1 c39 -1 100 -2 135 -3 60 -2 75 6 53 30 -5 5
-37 63 -71 129 -35 66 -69 127 -76 136 -8 8 -14 18 -14 22 0 9 -90 157 -96
157 -2 0 -4 -106 -4 -235z"/>
<path d="M6984 4666 c-68 -74 -235 -325 -271 -408 l-12 -29 146 3 c87 2 147 7
149 13 3 6 3 105 2 222 -2 153 -6 207 -14 199z"/>
<path d="M107 4212 l-107 -3 2 -382 3 -382 95 1 c102 1 342 12 400 19 19 2 75
7 125 10 49 3 91 8 94 10 3 4 -344 712 -356 725 -5 5 -100 6 -256 2z"/>
<path d="M6622 4111 c-5 -3 -35 -73 -67 -155 -31 -82 -65 -168 -75 -190 -10
-23 -36 -81 -58 -131 -22 -49 -56 -119 -76 -153 -20 -35 -36 -65 -36 -67 0 -1
12 -5 28 -8 15 -2 79 -14 142 -26 63 -11 133 -23 155 -26 22 -3 54 -7 70 -10
17 -2 53 -7 80 -10 28 -3 59 -8 70 -10 11 -2 48 -7 83 -11 l62 -6 0 401 0 401
-37 1 c-21 0 -104 2 -184 3 -81 2 -151 1 -157 -3z"/>
<path d="M2047 3350 c-47 -71 -88 -122 -144 -175 -38 -36 -59 -82 -79 -170 -1
-5 -18 -53 -37 -105 -162 -440 -452 -986 -798 -1502 -33 -49 -59 -91 -59 -96
0 -22 174 -131 322 -201 255 -122 534 -183 832 -183 122 0 129 1 151 23 84 87
213 447 338 944 48 187 103 423 121 515 2 14 12 59 21 100 9 41 23 109 30 150
8 41 23 122 34 181 11 58 23 132 26 165 4 32 9 61 10 64 2 3 7 42 10 87 l7 81
-73 17 c-41 9 -85 19 -99 21 -47 8 -315 76 -437 110 -67 19 -125 34 -130 34
-4 -1 -25 -27 -46 -60z"/>
<path d="M4685 3340 c-197 -70 -514 -148 -539 -133 -5 3 -6 -19 -2 -52 6 -57
46 -301 60 -370 2 -11 20 -99 40 -195 122 -602 279 -1141 446 -1530 71 -168
82 -186 107 -188 52 -3 261 -1 283 2 14 3 48 7 75 10 28 3 75 10 105 16 30 6
66 14 80 16 54 11 237 77 318 114 138 65 362 207 362 230 0 5 -71 115 -158
246 -246 369 -373 594 -472 829 -23 55 -45 107 -49 115 -10 19 -85 254 -107
333 -9 32 -28 73 -43 90 -41 47 -173 224 -280 375 -52 72 -99 132 -105 131 -6
0 -60 -18 -121 -39z"/>
<path d="M685 3360 c-67 -10 -137 -18 -215 -25 -36 -3 -85 -8 -110 -10 -25 -2
-97 -7 -160 -10 -63 -4 -133 -7 -155 -9 l-40 -2 -3 -352 c-1 -194 0 -352 2
-352 11 0 207 75 316 121 207 87 680 337 680 358 0 4 -22 33 -49 64 -27 31
-79 95 -116 142 -39 50 -73 84 -83 84 -9 -1 -39 -5 -67 -9z"/>
<path d="M6233 3256 c-4 -8 -46 -55 -93 -106 -47 -51 -86 -96 -88 -100 -4 -10
122 -106 243 -187 178 -118 360 -213 561 -294 71 -28 132 -53 137 -56 4 -2 7
142 7 320 0 252 -3 324 -12 324 -15 0 -128 12 -173 18 -63 9 -191 27 -205 30
-8 2 -37 6 -65 9 -27 4 -57 9 -65 11 -8 2 -30 7 -48 10 -18 3 -64 12 -103 20
-86 18 -86 18 -96 1z"/>
<path d="M4009 3216 c-32 -30 -853 -39 -1001 -11 -15 3 -29 1 -32 -4 -5 -7
-18 -66 -50 -231 -3 -14 -12 -60 -23 -120 -39 -217 -206 -894 -308 -1249 -57
-200 -192 -628 -222 -708 -9 -23 277 -149 462 -204 153 -45 293 -74 450 -94
162 -20 428 -20 563 0 18 3 54 8 80 11 178 21 472 112 647 202 l54 27 -46 105
c-71 165 -156 392 -213 565 -50 154 -132 460 -144 539 -4 21 -8 41 -10 45 -2
3 -7 28 -10 54 -4 26 -11 71 -17 100 -16 79 -35 196 -43 262 -2 17 -9 71 -15
120 -7 50 -14 110 -17 135 -3 25 -9 70 -15 100 -5 30 -11 77 -15 104 -7 61
-51 237 -62 248 -5 5 -10 7 -13 4z"/>
<path d="M1676 3011 c-3 -5 -27 -19 -53 -31 -154 -72 -335 -73 -512 -3 l-63
25 -27 -21 c-223 -180 -536 -355 -851 -476 -52 -20 -111 -42 -130 -49 l-35
-14 -3 -368 -2 -369 49 -32 c130 -86 348 -188 521 -246 98 -33 184 -57 202
-57 8 0 46 48 84 108 57 87 300 473 335 532 107 182 117 198 222 390 143 261
210 404 285 608 5 14 -14 17 -22 3z"/>
<path d="M5925 2920 c-9 -14 -120 -64 -180 -81 -76 -21 -236 -16 -313 9 -48
15 -62 17 -58 7 3 -8 10 -33 16 -57 53 -198 241 -583 440 -898 133 -211 391
-577 419 -595 10 -6 119 20 230 56 161 51 340 134 469 215 l52 34 -2 366 -3
366 -35 13 c-133 48 -215 82 -308 126 -59 28 -120 58 -137 65 -154 73 -409
243 -525 351 -36 34 -54 40 -65 23z"/>
<path d="M0 1300 l0 -220 27 11 c16 5 35 12 43 16 8 3 20 7 26 8 18 4 287 112
353 142 l64 29 -84 28 c-130 45 -247 98 -356 162 l-73 43 0 -219z"/>
<path d="M6945 1388 c-27 -16 -59 -32 -70 -37 -11 -5 -45 -20 -75 -33 -89 -40
-130 -55 -218 -84 -45 -15 -80 -29 -78 -32 19 -18 484 -208 491 -200 3 3 4 97
3 210 l-3 205 -50 -29z"/>
<path d="M535 1170 c-103 -51 -267 -120 -437 -184 l-98 -38 0 -443 0 -443 93
50 c198 107 355 197 445 254 29 19 54 34 57 34 8 0 310 205 377 256 101 76
211 173 252 221 l19 23 -69 30 c-165 74 -314 154 -441 237 -46 29 -86 53 -90
52 -5 0 -53 -23 -108 -49z"/>
<path d="M6178 1105 c-100 -68 -339 -194 -445 -236 -13 -5 -23 -12 -22 -16 2
-20 285 -250 479 -389 165 -119 241 -170 492 -330 203 -129 212 -134 264 -134
l54 0 0 408 0 407 -78 29 c-124 46 -417 173 -554 241 l-127 62 -63 -42z"/>
<path d="M1334 808 c-27 -24 -72 -61 -98 -83 -26 -22 -53 -45 -59 -50 -24 -21
-211 -162 -275 -207 -180 -127 -624 -418 -638 -418 -3 0 -22 -11 -42 -25 l-37
-25 670 0 671 0 61 72 c34 40 69 82 80 93 10 11 45 52 78 90 33 39 62 72 65
75 3 3 30 34 60 70 30 36 59 70 65 76 43 46 204 251 202 258 -1 5 -40 10 -87
12 -47 2 -98 5 -115 8 -16 3 -64 8 -105 12 -41 3 -77 8 -80 9 -3 2 -30 6 -60
10 -65 8 -268 49 -290 59 -10 4 -33 -8 -66 -36z"/>
<path d="M5510 789 c-103 -46 -328 -92 -513 -105 -48 -3 -96 -7 -105 -9 -9 -2
-30 -4 -45 -4 l-29 -1 49 -59 c26 -33 55 -68 63 -79 8 -11 105 -135 215 -276
l200 -255 633 -1 c347 0 632 2 632 4 0 2 -73 55 -162 117 -147 101 -498 362
-530 392 -7 7 -33 28 -58 47 -53 41 -65 51 -194 164 -55 47 -102 86 -105 85
-3 0 -26 -9 -51 -20z"/>
<path d="M2179 588 c-89 -118 -280 -356 -323 -403 -12 -13 -30 -34 -41 -47
-11 -13 -42 -49 -69 -81 l-49 -57 579 2 578 3 72 220 c40 120 70 223 68 227
-3 4 -14 8 -25 8 -30 0 -248 56 -336 86 -99 33 -222 89 -293 131 -30 18 -58
33 -62 33 -3 0 -48 -55 -99 -122z"/>
<path d="M4635 652 c-159 -94 -421 -175 -589 -183 -26 -2 -50 -8 -52 -14 -3
-6 20 -110 49 -230 l54 -220 543 -3 543 -2 -35 42 c-59 73 -250 326 -364 483
l-109 150 -40 -23z"/>
<path d="M3091 395 c-35 -110 -53 -170 -56 -185 -2 -8 -17 -59 -33 -113 l-29
-97 499 0 c471 0 499 1 494 18 -3 9 -26 105 -51 212 -25 107 -49 201 -53 208
-5 10 -86 13 -380 15 l-372 2 -19 -60z"/>
</g>
</svg>
