<?xml version="1.0" encoding="utf-8"?>
<!-- Generator: Adobe Illustrator 22.1.0, SVG Export Plug-In . SVG Version: 6.00 Build 0)  -->
<svg version="1.1" id="Footer-Background" xmlns="http://www.w3.org/2000/svg" xmlns:xlink="http://www.w3.org/1999/xlink" x="0px"
	 y="0px" width="1920px" height="948.1px" viewBox="0 0 1920 948.1" style="enable-background:new 0 0 1920 948.1;"
	 xml:space="preserve">
<style type="text/css">
	.st0{fill:#004582;}
	.st1{opacity:5.000000e-02;}
	.st2{fill:#FFFFFF;}
	.st3{fill:#00529C;}
	.st4{fill:#CC1E27;}
	.st5{fill:#E23940;}
</style>
<path class="st0" d="M1991,28.9c0,0-461.8,225.9-737.1,202S621.6,63.1,341.1,55.6s-523.5,150-523.5,150l93,802.5L1991,994.6V28.9z"
	/>
<g class="st1">
	<path class="st2" d="M1371.6,458.8c262.6-3.6,379.4-127.6,412.4-152.4c-192.2,21.6-261.5,1.8-829.1-125.8
		c-56,103.4-228,155.3-231,158.4C819.9,370.2,1083.7,458.9,1371.6,458.8z"/>
	<path class="st2" d="M1140,574.3c0,0,170.7-16.1,252.8-90.2c-278.3,27.3-714.3-141.4-714.3-141.4s-9.6,38-78.3,71.5
		C836.6,528.3,1140,574.3,1140,574.3z"/>
	<path class="st2" d="M579.2,426.3c-61.2,32.9-141.8,16.3-141.8,16.3s-9.9-0.7-31,13c247.5,146.2,360.9,176.8,528.5,205.2
		c95.6-18.3,177.5-56.4,189.2-66.7C950.4,574.5,780.5,520.8,579.2,426.3z"/>
	<path class="st2" d="M742.5,746.8c-211.7-16.7-540.9-247.5-540.9-247.5s-33.2-2.7-60.1-19.5c-35.2,31.6-68.8,32.3-86.2,38.1
		c255.9,226.4,527.9,290,527.9,290S702.1,789,742.5,746.8z"/>
	<path class="st2" d="M564.4,824.5C285,748.8,30,529.2,23.5,524C-7,527.6-35,525.5-75,516.6c178.9,253.7,406.2,354.6,425.1,357.4
		C369.2,876.6,497.4,892.8,564.4,824.5z"/>
	<path class="st2" d="M325.3,887.2C43.2,761.7-111.4,505.6-111.4,505.6s-29.7,6.1-89.7-0.8C-178.4,585.1-135.9,1080.1,325.3,887.2z"
		/>
	<path class="st2" d="M771.2,732.4c49.9-12.8,117.7-21.9,152-53.9c-142.8-21.2-333.1-86.8-536.8-209.9
		c-40.8,22-86.9,28.1-141.4,29.4C258.7,507.3,534.3,707.2,771.2,732.4z"/>
	<path class="st2" d="M925.6,173.6c-54.4-9.9-311.6-62.2-443.1-87.9C283.7,49,172.9,139.1,172.9,139.1s262.5,155,520.8,171.5
		C712.2,311.4,861.8,261.3,925.6,173.6z"/>
	<path class="st2" d="M661.5,328.2c0,0-255.2-23.5-507.6-180.6c-67,59-91.1,69.1-91.1,69.1s179.7,164.1,374.1,201.6
		C559.8,452.3,661.5,328.2,661.5,328.2z"/>
	<path class="st2" d="M408.2,432.7c-211.8-56.9-363-201.7-363-201.7s-16.4,5.2-42.9,14.4c26.2,71,76.4,144.4,167.3,223
		C244.7,504.2,399.5,445.4,408.2,432.7z"/>
	<path class="st2" d="M129.5,464.9C1.8,346.7-17.8,253.2-17.8,253.2s-47.5,8.5-79.1-33.4c-27.8,108-2.3,267-2.3,267
		S23.7,532.1,129.5,464.9z"/>
</g>
<path class="st3" d="M1957.8,62.7c-4.8,2.1-10,4.4-15,6.5l-15.2,6.4c-10.2,4.2-20.4,8.4-30.7,12.5c-20.5,8.2-41.2,16.2-62,23.9
	c-41.6,15.5-83.5,30-125.8,43.5c-42.3,13.5-85,25.9-128,37c-43,11.1-86.5,20.8-130.2,28.6c-43.7,7.8-87.8,13.7-132.1,16.7
	c-44.2,2.9-88.6,2.9-132.2-2.2c-44.2-5.3-88.1-12.6-131.8-21.5c-43.6-8.8-86.9-19.5-130-30.8c-43.1-11.4-85.9-23.8-128.8-36.1
	c-42.9-12.3-85.9-24.8-129.3-36.1c-21.7-5.7-43.5-11-65.4-16.1c-11-2.4-21.9-4.9-32.9-7.1c-5.5-1.1-11-2.3-16.5-3.3l-16.6-3.1
	c-22.2-3.9-44.4-7.6-66.8-10.3c-11.2-1.5-22.4-2.6-33.6-3.7c-5.6-0.6-11.2-0.9-16.9-1.4c-5.6-0.4-11.2-1-16.9-1.2l-16.9-0.9
	c-2.8-0.2-5.6-0.2-8.5-0.3l-8.5-0.2c-11.3-0.4-22.6-0.3-33.9-0.3c-22.6,0.4-45.1,1.2-67.6,3.1l-8.4,0.6c-2.8,0.2-5.6,0.5-8.4,0.8
	l-16.8,1.7c-11.2,1.4-22.4,2.6-33.5,4.3c-11.2,1.5-22.2,3.4-33.3,5.2c-11.1,2-22.1,4-33.1,6.3c-44.1,8.9-87.5,20.4-130.1,34.1
	c-21.3,6.9-42.4,14.3-63.2,22.3c-20.8,8.1-41.4,16.6-61.4,26.3c20.1-9.4,40.9-17.5,61.8-25.3c20.9-7.7,42.1-14.8,63.5-21.2
	c42.8-13,86.2-23.8,130.3-31.9c11-2.1,22-3.9,33.1-5.7c11.1-1.6,22.1-3.3,33.3-4.7c11.1-1.5,22.2-2.5,33.4-3.7l16.7-1.4
	c2.8-0.2,5.6-0.5,8.4-0.7l8.4-0.5c22.3-1.5,44.7-2,67.1-2c11.2,0.2,22.4,0.2,33.5,0.8l8.4,0.4c2.8,0.1,5.6,0.2,8.4,0.4l16.7,1.2
	c5.6,0.3,11.1,0.9,16.7,1.4c5.6,0.6,11.1,1,16.7,1.7c11.1,1.3,22.2,2.5,33.2,4.2c22.1,3,44.1,7,66,11.2l16.4,3.4
	c5.5,1.1,10.9,2.4,16.3,3.6c10.9,2.3,21.7,5,32.5,7.6c21.6,5.4,43.2,11,64.6,17c42.9,11.9,85.5,25,128.2,38
	c42.7,13,85.4,26.1,128.5,38.3c43.1,12.1,86.6,23.6,130.5,33.2c44,9.7,88.4,17.8,133.2,23.9c45.5,6.1,91.4,6.8,136.9,4.5
	c45.5-2.3,90.7-7.7,135.4-14.9c44.7-7.3,89-16.5,132.9-27c43.9-10.6,87.4-22.5,130.5-35.4c43.1-13,85.8-27,128.2-42
	c21.2-7.5,42.3-15.2,63.2-23.2c10.5-4,21-8.1,31.4-12.2l15.7-6.3c5.2-2.1,10.4-4.2,15.7-6.5L1957.8,62.7z"/>
<path class="st4" d="M1955.7,28.9c-4.8,2.2-9.9,4.5-14.9,6.7l-15.1,6.7c-10.1,4.4-20.3,8.7-30.5,13c-20.4,8.5-40.9,16.8-61.5,24.9
	c-41.3,16.1-82.9,31.3-125,45.5c-42.1,14.2-84.5,27.3-127.3,39.1c-42.8,11.8-86.1,22.2-129.7,30.8c-43.6,8.5-87.6,15.2-131.7,18.8
	c-44.1,3.6-88.5,4.3-132.2-0.1c-44.3-4.6-88.4-11.2-132.1-19.3c-43.8-8.1-87.2-18-130.5-28.7c-43.3-10.7-86.4-22.4-129.5-34
	c-43.1-11.6-86.3-23.4-129.9-34C643.9,92.9,622,88,600,83.3c-11-2.2-22-4.6-33.1-6.6c-5.5-1-11-2.2-16.6-3.1l-16.6-2.9
	c-22.2-3.6-44.5-6.9-67-9.2c-11.2-1.3-22.5-2.2-33.7-3.2c-5.6-0.5-11.3-0.7-16.9-1.1c-5.6-0.3-11.3-0.8-16.9-0.9l-16.9-0.6
	c-2.8-0.1-5.6-0.1-8.5-0.2l-8.5-0.1c-11.3-0.2-22.6,0.1-33.9,0.2c-22.6,0.7-45.1,1.9-67.5,4.2l-8.4,0.8c-2.8,0.3-5.6,0.6-8.4,0.9
	l-16.8,1.9c-11.1,1.6-22.3,3-33.4,4.8c-11.1,1.7-22.2,3.8-33.2,5.8c-11,2.2-22.1,4.3-33,6.8c-43.9,9.6-87.1,21.8-129.4,36.2
	c-21.2,7.2-42.1,15-62.8,23.3c-20.6,8.4-41.1,17.3-60.9,27.3c20-9.7,40.6-18.2,61.3-26.3c20.8-8,41.8-15.4,63.1-22.3
	c42.5-13.6,85.8-25.2,129.7-34c10.9-2.3,22-4.2,33-6.3c11-1.8,22.1-3.7,33.2-5.2c11.1-1.7,22.2-2.9,33.3-4.3l16.7-1.7
	c2.8-0.3,5.6-0.6,8.4-0.8l8.4-0.6c22.3-1.9,44.7-2.7,67.1-3.1c11.2,0,22.4-0.1,33.5,0.3l8.4,0.2c2.8,0.1,5.6,0.1,8.4,0.3l16.7,0.9
	c5.6,0.2,11.1,0.8,16.7,1.2c5.6,0.5,11.1,0.8,16.7,1.4c11.1,1.2,22.2,2.2,33.3,3.7c22.2,2.7,44.2,6.3,66.2,10.2l16.4,3.1
	c5.5,1,10.9,2.2,16.4,3.3c10.9,2.2,21.8,4.7,32.7,7.1c21.7,5,43.4,10.3,64.9,15.9c43.1,11.2,86,23.6,128.9,35.9
	c42.9,12.3,85.9,24.7,129.2,36.2c43.3,11.4,87,22.1,131.2,31.1c44.1,9,88.7,16.4,133.7,21.7c45.6,5.3,91.5,5.3,136.9,2.3
	c45.5-3.1,90.5-9.1,135.1-17.1c44.6-8,88.7-17.9,132.4-29.2c43.7-11.3,86.9-23.9,129.8-37.5c42.9-13.7,85.3-28.4,127.4-44
	c21-7.8,42-15.9,62.8-24.2c10.4-4.2,20.8-8.4,31.2-12.7l15.5-6.5c5.2-2.2,10.3-4.4,15.6-6.8L1955.7,28.9z"/>
<path class="st5" d="M1952.9-4.7c-4.8,2.3-9.8,4.7-14.8,7l-15,6.9c-10,4.5-20.1,9-30.2,13.4c-20.3,8.8-40.6,17.4-61.1,25.8
	c-41,16.7-82.4,32.5-124.2,47.2c-41.8,14.7-84,28.5-126.7,40.8c-42.6,12.4-85.7,23.4-129.1,32.6c-43.4,9.1-87.2,16.4-131.3,20.7
	c-44,4.3-88.3,5.6-131.9,1.8c-44.3-3.8-88.5-9.5-132.4-16.9c-43.9-7.4-87.6-16.4-131-26.4c-87-19.9-173.2-43.7-260.7-63.4
	c-43.8-9.8-87.9-18.6-132.5-25.2c-44.6-6.6-89.6-10.9-134.8-12.1c-90.4-2.6-180.8,8.3-268.1,29.1C85.4,87.1,42.4,99.9,0.3,115
	c-21,7.5-41.8,15.7-62.3,24.4c-20.5,8.8-40.7,18-60.4,28.3c19.8-10,40.2-18.9,60.8-27.3c20.6-8.3,41.5-16.1,62.7-23.3
	c42.2-14.3,85.3-26.4,129-36.1c87.3-19.2,177.2-28.5,266.5-24.3c44.7,2,89.1,7.2,133.1,14.5c44,7.3,87.6,16.9,130.9,27.5
	c86.6,21.3,172.2,46.7,259.3,68.4c43.5,10.9,87.4,20.8,131.7,29.2c44.3,8.4,89.1,15.1,134.2,19.8c45.8,4.5,91.8,3.6,137.3-0.2
	c45.5-3.9,90.4-10.8,134.9-19.6c44.5-8.8,88.4-19.5,131.9-31.6c43.5-12.1,86.5-25.5,129-39.9c42.6-14.4,84.7-29.9,126.5-46.3
	c20.9-8.2,41.6-16.7,62.3-25.4c10.3-4.4,20.6-8.8,30.9-13.3l15.4-6.8c5.2-2.3,10.2-4.6,15.5-7.1L1952.9-4.7z"/>
</svg>
