<?xml version="1.0" encoding="utf-8"?>
<!-- Generator: Adobe Illustrator 22.1.0, SVG Export Plug-In . SVG Version: 6.00 Build 0)  -->
<svg version="1.1" id="OB-Background" xmlns="http://www.w3.org/2000/svg" xmlns:xlink="http://www.w3.org/1999/xlink" x="0px"
	 y="0px" width="319px" height="319px" viewBox="0 0 319 319" style="enable-background:new 0 0 319 319;" xml:space="preserve">
<style type="text/css">
	.st0{opacity:0.17;}
	.st1{fill:#FFFFFF;}
</style>
<g class="st0">
	<path class="st1" d="M-388.3,26.1c-69.4-39.7-84.5-110.4-84.5-110.4s21.4,32.8,232.8,99.7c-0.6,35.3,42,73.8,42.3,75.1
		C-228,84.5-311.6,68.7-388.3,26.1z"/>
	<path class="st1" d="M-342.8,92c0,0-39.1-30.9-49.8-62.5c70,48.3,198.4,68.1,198.4,68.1s1.6,16.1,14.8,35
		C-259.6,127.7-342.8,92-342.8,92z"/>
	<path class="st1" d="M-175.6,139c6.3,8.2,29,23.3,29,23.3s4,6.5,7.6,13.2c-96.8-7.3-123.3-19.2-172.2-36.6
		c-22.7-18.9-28.1-36-29.6-40.4C-291.7,119.2-243.5,134-175.6,139z"/>
	<path class="st1" d="M-269.7,195.2C-216,218.5-93,214.8-93,214.8s12.2,5,19.6,5.7c4.4,15.1,15.3,20.1,19.1,24.2
		c-121.1,15.1-181.3-9-181.3-9S-265.2,212.2-269.7,195.2z"/>
	<path class="st1" d="M-228,243.8c85.8,21.5,179.2,6.7,181.7,6.3c7.6,5.5,15.1,9.7,27.1,13.3c-81.4,36.6-157.7,25.9-157.7,25.9
		S-220.4,271.5-228,243.8z"/>
	<path class="st1" d="M-178.2,295.5c94,8.8,165-29.3,165-29.3s9.8,7.5,26.8,14.5c-16.1,18-62.6,40.9-62.6,40.9h-98.4
		C-147.4,321.6-175,302.4-178.2,295.5z"/>
	<path class="st1" d="M-276.6,185.1c-11.4-10.7-22.2-23.1-26.5-36.6c27.8,11.7,77.3,29.3,168.4,33.4c5,9.5,31.5,27.1,31.5,27.1
		S-209.7,213.5-276.6,185.1z"/>
	<path class="st1" d="M-230.5,19.2c8,4.2,171,51.7,190.5,89c5,8.2,10.1,18.3,10.1,18.3s-82,0.4-153.3-33.4
		C-188.3,90.5-226.8,51.6-230.5,19.2z"/>
	<path class="st1" d="M-187.6,99.3c0,0,70.7,36.6,161.5,32.8c13.2,26.5,16.4,32.8,16.4,32.8s-77,8.8-134.4-10.1
		C-175,144.7-187.6,99.3-187.6,99.3z"/>
	<path class="st1" d="M-136.5,164.3c65,16.4,128.7,5.7,128.7,5.7s5,6.9,10.7,13.2c-24.8,14.7-49.6,26.1-79.5,28.4
		C-103.1,211.6-139.1,168.1-136.5,164.3z"/>
	<path class="st1" d="M-66.5,218.5c50.5-11.8,71.3-32.2,71.3-32.2s15.4,9,29.2-1.1c-6.3,22.3-41.2,74.4-41.2,74.4
		S-48.4,251.8-66.5,218.5z"/>
	<path class="st1" d="M-0.9,262.7c0,0,21.9,19.3,58,17c11.4-10.1,29.6-101.6,27.1-103.5c-16.4-3.2-30.9-7.6-32.8-8.2
		c-1.9,2.5-5.7,9.3-10.1,12C30.6,218.5-0.9,262.7-0.9,262.7z"/>
	<path class="st1" d="M90.9,177.2c12,1.9,41.3,0.9,47-0.3c6.9,18.3,1.3,49.2,27.1,106.6c-52.4,27.1-101.3-2.2-101.3-2.2
		S79.5,239,90.9,177.2z"/>
	<path class="st1" d="M142.9,177.5c13.2-1.3,30.3-8.2,30.3-8.2s15.1,21.5,18.3,24.6c8.2,34.3,28.4,57.8,36,70.7
		c-25.2,20.6-53.9,17.7-56.2,17C154.3,246.9,144.8,192,142.9,177.5z"/>
	<path class="st1" d="M171.3,56.4c-11.6-26.3-59.9-29.2-80.1-10.3c-15.6,14.7-35.3,30.5-50.5,33c3.8,7.4,15.8,7.6,15.8,7.6
		s-2.5,4.4-7.6,5.7c6.3,3.8,13.3,3.8,13.3,3.8s3.8,0.6-6.3,4.4c2.5,4.8,18.9-2.7-1.9,59.3c25.9,14.5,88.3,13.2,114.2,2.5
		c-31.6-77.8,31.5-94.6,42.3-83.3C216.1,48.8,172.8,56.2,171.3,56.4z M144.2,57.5c-4.3,0-7.7-1.3-7.7-3c0-1.6,3.5-3,7.7-3
		c4.3,0,7.7,1.3,7.7,3C151.9,56.1,148.5,57.5,144.2,57.5z"/>
	<path class="st1" d="M19.7,282.9c4,1.9,25.4,5,34.6,4.7c-5.7,7.6-28.8,34-28.8,34h-60.6C-35.1,321.6-0.6,301.5,19.7,282.9z"/>
	<path class="st1" d="M59.7,288.9c13.6,9.1,32.5,11.7,32.5,11.7l-6.9,21H33.1C33.1,321.6,48.9,304.1,59.7,288.9z"/>
	<path class="st1" d="M96.9,300.6c0,0,21.3,0.4,33.8,0c1.8,7.1,5,21,5,21h-45L96.9,300.6z"/>
	<path class="st1" d="M625.1,38C694.5-1.7,706.9-51.5,712-62.8c-47.9,34.1-69.4,39.1-239.7,89.6c0.6,35.3-37.4,74.3-37.7,75.6
		C464.8,96.4,548.4,80.6,625.1,38z"/>
	<path class="st1" d="M580.8,102.5c0,0,43.1-29.4,53.8-61c-70,48.3-211.5,68.6-211.5,68.6s3.2,11.4-10.1,30.3
		C493.1,135.3,580.8,102.5,580.8,102.5z"/>
	<path class="st1" d="M409.2,146.6c-11.4,17.7-35.3,25.2-35.3,25.2s-2.7,1.3-6.3,8c87.9,1.7,122.7-7,171.6-24.4
		c22.7-18.9,38.8-41,40.4-45.4C530.3,130.5,477,141.6,409.2,146.6z"/>
	<path class="st1" d="M500.9,206.3c-58.9,26.9-181.3,15.1-181.3,15.1s-9.3,4.2-18.9,3.8c-4.6,13.5-13.5,18.6-17.2,22.7
		c102.2,21.4,184.2-2.1,184.2-2.1S496.5,223.4,500.9,206.3z"/>
	<path class="st1" d="M465.1,253c-85.8,21.5-186.7,1.7-189.3,1.3c-7.6,5.5-15.3,9-27.3,12.6c85.8,40,161.5,32.8,167,30.7
		C421,295.5,457.5,280.8,465.1,253z"/>
	<path class="st1" d="M410.9,304.8c-94,8.8-173.7-35.3-173.7-35.3s-7,6-24,13c18.1,17.7,56,40,56,40h121.1
		C390.2,322.4,407.7,311.7,410.9,304.8z"/>
	<path class="st1" d="M506.3,198.3c11.4-10.7,28.1-23.1,32.4-36.6c-41.2,15.6-101.8,26.5-174.5,24.4c-7.6,11.8-18.9,20.2-33.2,28.6
		C336,215.2,439.5,226.7,506.3,198.3z"/>
	<path class="st1" d="M463.4,29.3c-16,5.5-92.3,29.8-131.2,42.5c-58.5,19.8-74.4,59.7-74.4,59.7s93.2,1.8,164.5-32.1
		C427.3,96.9,459.6,61.7,463.4,29.3z"/>
	<path class="st1" d="M416.3,108.8c0,0-71.5,31.5-162.4,27.8c-9,25.3-13.9,31.5-13.9,31.5s72.6,16.4,130-2.5
		C407.9,156.3,416.3,108.8,416.3,108.8z"/>
	<path class="st1" d="M364.6,173.5c-65,16.4-127,0.8-127,0.8s-3.6,3.8-9.3,10.1c17.7,14.7,42.1,26.5,78.1,33.6
		C331.8,216.4,364.2,178.2,364.6,173.5z"/>
	<path class="st1" d="M295.2,223.2c-51.8-12.1-71.1-33.6-71.1-33.6s-11.4,9.3-26.1,2.9c8.8,32.4,39.5,70.2,39.5,70.2
		S277.1,256.4,295.2,223.2z"/>
	<path class="st1" d="M207,284.7c-13.1,6.2-35.1,6.1-33.4,6.2c5.7,7.6,24.8,31.5,24.8,31.5h58C256.5,322.4,227.3,303.3,207,284.7z"
		/>
	<path class="st1" d="M167.1,290.7c-13.6,9.1-30.9,9.5-30.9,9.5l5.5,22.3h49.2C190.9,322.4,177.8,305.9,167.1,290.7z"/>
</g>
</svg>
